<mxfile host="app.diagrams.net" modified="2023-11-08T12:47:00.851Z" agent="Mozilla/5.0 (Windows NT 10.0; Win64; x64) AppleWebKit/537.36 (KHTML, like Gecko) Chrome/119.0.0.0 Safari/537.36" etag="oEYt5GacORsMfszkmq2G" version="21.7.5" type="github">
  <diagram name="第 1 页" id="LuCD4FvW6rBb0ad8V7VS">
    <mxGraphModel dx="1782" dy="1508" grid="1" gridSize="10" guides="1" tooltips="1" connect="1" arrows="1" fold="1" page="1" pageScale="1" pageWidth="1169" pageHeight="827" math="0" shadow="0">
      <root>
        <mxCell id="0" />
        <mxCell id="1" parent="0" />
        <mxCell id="KGNfo6lip1S8Jej3egop-58" value="&lt;div style=&quot;&quot;&gt;&lt;br&gt;&lt;/div&gt;&lt;div style=&quot;text-align: justify;&quot;&gt;&lt;/div&gt;" style="rounded=1;whiteSpace=wrap;html=1;fillColor=none;dashed=1;dashPattern=12 12;" vertex="1" parent="1">
          <mxGeometry x="90" y="200" width="340" height="160" as="geometry" />
        </mxCell>
        <mxCell id="KGNfo6lip1S8Jej3egop-33" value="Service A - 1" style="rounded=0;whiteSpace=wrap;html=1;" vertex="1" parent="1">
          <mxGeometry x="120" y="240" width="120" height="30" as="geometry" />
        </mxCell>
        <mxCell id="KGNfo6lip1S8Jej3egop-34" value="Service A - 2" style="rounded=0;whiteSpace=wrap;html=1;" vertex="1" parent="1">
          <mxGeometry x="120" y="290" width="120" height="30" as="geometry" />
        </mxCell>
        <mxCell id="KGNfo6lip1S8Jej3egop-36" value="Service B - 1" style="rounded=0;whiteSpace=wrap;html=1;" vertex="1" parent="1">
          <mxGeometry x="280" y="240" width="120" height="30" as="geometry" />
        </mxCell>
        <mxCell id="KGNfo6lip1S8Jej3egop-37" value="Service B - 2" style="rounded=0;whiteSpace=wrap;html=1;" vertex="1" parent="1">
          <mxGeometry x="280" y="290" width="120" height="30" as="geometry" />
        </mxCell>
        <mxCell id="KGNfo6lip1S8Jej3egop-59" value="" style="endArrow=classic;startArrow=classic;html=1;rounded=0;entryX=0;entryY=0.5;entryDx=0;entryDy=0;exitX=1;exitY=0.5;exitDx=0;exitDy=0;" edge="1" parent="1" source="KGNfo6lip1S8Jej3egop-33" target="KGNfo6lip1S8Jej3egop-36">
          <mxGeometry width="50" height="50" relative="1" as="geometry">
            <mxPoint x="280" y="190" as="sourcePoint" />
            <mxPoint x="330" y="140" as="targetPoint" />
          </mxGeometry>
        </mxCell>
        <mxCell id="KGNfo6lip1S8Jej3egop-60" value="" style="endArrow=classic;startArrow=classic;html=1;rounded=0;entryX=0;entryY=0.5;entryDx=0;entryDy=0;exitX=1;exitY=0.5;exitDx=0;exitDy=0;" edge="1" parent="1">
          <mxGeometry width="50" height="50" relative="1" as="geometry">
            <mxPoint x="240" y="304.65999999999997" as="sourcePoint" />
            <mxPoint x="280" y="304.65999999999997" as="targetPoint" />
          </mxGeometry>
        </mxCell>
        <mxCell id="KGNfo6lip1S8Jej3egop-61" value="Eureka&lt;br&gt;服务发现" style="rounded=1;whiteSpace=wrap;html=1;" vertex="1" parent="1">
          <mxGeometry x="470" y="160" width="130" height="70" as="geometry" />
        </mxCell>
        <mxCell id="KGNfo6lip1S8Jej3egop-62" value="" style="endArrow=classic;startArrow=classic;html=1;rounded=0;shape=flexArrow;edgeStyle=orthogonalEdgeStyle;" edge="1" parent="1">
          <mxGeometry width="50" height="50" relative="1" as="geometry">
            <mxPoint x="450" y="280" as="sourcePoint" />
            <mxPoint x="535" y="240" as="targetPoint" />
          </mxGeometry>
        </mxCell>
        <mxCell id="KGNfo6lip1S8Jej3egop-64" style="edgeStyle=orthogonalEdgeStyle;rounded=0;orthogonalLoop=1;jettySize=auto;html=1;exitX=0.5;exitY=1;exitDx=0;exitDy=0;entryX=0.5;entryY=0;entryDx=0;entryDy=0;" edge="1" parent="1" source="KGNfo6lip1S8Jej3egop-63" target="KGNfo6lip1S8Jej3egop-58">
          <mxGeometry relative="1" as="geometry" />
        </mxCell>
        <mxCell id="KGNfo6lip1S8Jej3egop-65" value="&lt;font style=&quot;font-size: 12px;&quot;&gt;/api/aerviceA&lt;br&gt;/api/serviceB&lt;br&gt;...&lt;/font&gt;" style="edgeLabel;html=1;align=center;verticalAlign=middle;resizable=0;points=[];" vertex="1" connectable="0" parent="KGNfo6lip1S8Jej3egop-64">
          <mxGeometry x="0.0208" relative="1" as="geometry">
            <mxPoint x="50" y="-1" as="offset" />
          </mxGeometry>
        </mxCell>
        <mxCell id="KGNfo6lip1S8Jej3egop-63" value="Zuul 网关" style="rounded=1;whiteSpace=wrap;html=1;" vertex="1" parent="1">
          <mxGeometry x="181.25" y="80" width="157.5" height="40" as="geometry" />
        </mxCell>
        <mxCell id="KGNfo6lip1S8Jej3egop-67" value="" style="shape=flexArrow;endArrow=classic;startArrow=classic;html=1;rounded=0;edgeStyle=orthogonalEdgeStyle;" edge="1" parent="1">
          <mxGeometry width="100" height="100" relative="1" as="geometry">
            <mxPoint x="350" y="100" as="sourcePoint" />
            <mxPoint x="540" y="150" as="targetPoint" />
          </mxGeometry>
        </mxCell>
        <mxCell id="KGNfo6lip1S8Jej3egop-70" style="edgeStyle=orthogonalEdgeStyle;rounded=0;orthogonalLoop=1;jettySize=auto;html=1;exitX=0.5;exitY=1;exitDx=0;exitDy=0;entryX=0.5;entryY=0;entryDx=0;entryDy=0;" edge="1" parent="1" source="KGNfo6lip1S8Jej3egop-69" target="KGNfo6lip1S8Jej3egop-63">
          <mxGeometry relative="1" as="geometry" />
        </mxCell>
        <mxCell id="KGNfo6lip1S8Jej3egop-71" value="&lt;font style=&quot;font-size: 13px;&quot;&gt;/api&lt;/font&gt;" style="edgeLabel;html=1;align=center;verticalAlign=middle;resizable=0;points=[];" vertex="1" connectable="0" parent="KGNfo6lip1S8Jej3egop-70">
          <mxGeometry x="-0.1222" relative="1" as="geometry">
            <mxPoint x="27" y="3" as="offset" />
          </mxGeometry>
        </mxCell>
        <mxCell id="KGNfo6lip1S8Jej3egop-69" value="nginx" style="rounded=1;whiteSpace=wrap;html=1;" vertex="1" parent="1">
          <mxGeometry x="205" y="-10" width="110" height="30" as="geometry" />
        </mxCell>
        <mxCell id="KGNfo6lip1S8Jej3egop-72" value="Eureka&lt;br&gt;服务发现" style="rounded=1;whiteSpace=wrap;html=1;" vertex="1" parent="1">
          <mxGeometry x="-70" y="160" width="130" height="70" as="geometry" />
        </mxCell>
      </root>
    </mxGraphModel>
  </diagram>
</mxfile>
